<svg id="Layer_1" data-name="Layer 1" xmlns="http://www.w3.org/2000/svg" viewBox="0 0 442.17 291.42"><defs><style>.cls-1{fill:#fff;}</style></defs><path class="cls-1" d="M204.77,119.89a16.49,16.49,0,0,0-2.53-.2A16.77,16.77,0,0,0,185.56,135a41.2,41.2,0,0,0,1.6,79.64,34.9,34.9,0,0,0-2.33,12.55c0,20.79,18.17,37.7,40.49,37.7h5.28v49.33h18.31V94.92h-2.67A47.27,47.27,0,0,0,204.77,119.89Zm31.17,188.94V259.5H225.32c-19.38,0-35.15-14.51-35.15-32.36a30,30,0,0,1,3.15-13.34l1.61-3.25-3.59-.56a35.86,35.86,0,0,1-2.55-70.36l2.16-.5-.12-2.69a11.4,11.4,0,0,1,14.64-10.94l2.18.65,1-2.06a41.91,41.91,0,0,1,34.94-23.74v89.2l-43.7-32.21,43.5,40.89.2-.25v30.57l-25.84-23.69,25.3,32.8.54-.5v71.67Z" transform="translate(-28.99 -94.92)"/><path class="cls-1" d="M321.26,159.44c0-43-42.43-64.52-66.18-64.52h-2.67V314h13.23a9.7,9.7,0,0,0,8.43-14.5,11.07,11.07,0,0,0,5.9-17.14,12.31,12.31,0,0,0,5.12-19.6,11.55,11.55,0,0,0,4.26-2.71c4.84-4.89,4.75-13.61,4.66-22.05,0-1.13,0-2.25,0-3.37,0-9.45,4.87-17,10.51-25.69C312.35,196.76,321.26,183,321.26,159.44ZM275.75,277.72H271v5.33a5.75,5.75,0,0,1,0,11.5h-5.35v5.34a4.36,4.36,0,0,1,0,8.72h-7.89V263.75h18a7,7,0,1,1,0,14Zm12.9-43.14c0,1.13,0,2.28,0,3.42.07,7.35.15,14.94-3.12,18.25-1.36,1.37-3.36,2-6.1,2H257.75V100.35c22.19,1.51,58.17,21.24,58.17,59.09,0,22-8.45,35-15.9,46.55C294.18,215,288.65,223.55,288.65,234.58Z" transform="translate(-28.99 -94.92)"/><path class="cls-1" d="M29,339.24H64.24v9.27H39.17v9.85h22.1v9.26H39.17v17.93H29Z" transform="translate(-28.99 -94.92)"/><path class="cls-1" d="M74.3,362.53v-.13c0-13.17,10.39-23.95,24.68-23.95s24.54,10.65,24.54,23.81v.14c0,13.16-10.39,23.94-24.68,23.94S74.3,375.69,74.3,362.53Zm38.57,0v-.13c0-7.94-5.82-14.56-14-14.56S85,354.33,85,362.26v.14C85,370.34,90.77,377,99,377S112.87,370.47,112.87,362.53Z" transform="translate(-28.99 -94.92)"/><path class="cls-1" d="M134.5,362.53v-.13c0-13.17,9.92-23.95,24.15-23.95,8.73,0,13.95,2.91,18.25,7.15l-6.48,7.47c-3.57-3.24-7.21-5.23-11.84-5.23-7.81,0-13.43,6.49-13.43,14.42v.14c0,7.94,5.49,14.55,13.43,14.55,5.29,0,8.53-2.12,12.17-5.42l6.48,6.55c-4.76,5.09-10,8.26-19,8.26A23.37,23.37,0,0,1,134.5,362.53Z" transform="translate(-28.99 -94.92)"/><path class="cls-1" d="M188.61,365.71V339.24H198.8v26.2c0,7.54,3.77,11.45,10,11.45s10-3.78,10-11.12V339.24H229v26.13c0,14-7.88,20.91-20.31,20.91S188.61,379.33,188.61,365.71Z" transform="translate(-28.99 -94.92)"/><path class="cls-1" d="M240.15,378.8l6-7.21c4.17,3.44,8.53,5.63,13.82,5.63,4.17,0,6.68-1.66,6.68-4.37v-.13c0-2.58-1.58-3.91-9.32-5.89-9.33-2.38-15.35-5-15.35-14.16v-.13c0-8.4,6.75-14,16.21-14a26.81,26.81,0,0,1,17.2,5.89l-5.3,7.68c-4.1-2.85-8.13-4.57-12-4.57s-6,1.79-6,4v.13c0,3,2,4,10,6.08,9.39,2.45,14.69,5.82,14.69,13.9v.13c0,9.19-7,14.35-17,14.35A29.47,29.47,0,0,1,240.15,378.8Z" transform="translate(-28.99 -94.92)"/><path class="cls-1" d="M303.79,342.42H287.65v-3.18h35.72v3.18H307.23v43.13h-3.44Z" transform="translate(-28.99 -94.92)"/><path class="cls-1" d="M337.79,339.24h19.45c5.69,0,10.25,1.79,13,4.57a12.22,12.22,0,0,1,3.51,8.6v.13c0,7.74-5.76,12.17-13.56,13.23l15.28,19.78h-4.37l-14.75-19.18H341.23v19.18h-3.44Zm19,24c7.74,0,13.5-3.9,13.5-10.59v-.13c0-6.22-4.9-10.12-13.3-10.12H341.23v20.84Z" transform="translate(-28.99 -94.92)"/><path class="cls-1" d="M389.59,339.24h32.94v3.18H393v18.19h26.53v3.18H393v18.58h29.83v3.18H389.59Z" transform="translate(-28.99 -94.92)"/><path class="cls-1" d="M437.88,339.24h32.94v3.18h-29.5v18.19h26.53v3.18H441.32v18.58h29.84v3.18H437.88Z" transform="translate(-28.99 -94.92)"/></svg>