<svg id="Layer_1" data-name="Layer 1" xmlns="http://www.w3.org/2000/svg" viewBox="0 0 323.43 428.32"><path d="M180.32,77a32.69,32.69,0,0,0-37.53,29.43A80.48,80.48,0,0,0,145.92,262a68.1,68.1,0,0,0-4.55,24.52c0,40.6,35.49,73.64,79.11,73.64h10.31v96.37h35.77V28.21h-5.21A92.32,92.32,0,0,0,180.32,77ZM241.2,446.09V349.72H220.47c-37.87,0-68.68-28.36-68.68-63.21A58.5,58.5,0,0,1,158,260.45l3.14-6.36-7-1.09a70,70,0,0,1-5-137.45l4.22-1-.24-5.26a22.27,22.27,0,0,1,28.6-21.37L186,89.2l1.91-4A81.89,81.89,0,0,1,256.13,38.8V213.06l-85.37-62.94,85,79.88.4-.48v59.71L205.66,243,255.07,307l1.07-1v140H241.2Z" transform="translate(-84.44 -28.2)"/><path d="M407.87,154.23c0-83.91-82.88-126-129.27-126h-5.21V456.07h25.85a18.94,18.94,0,0,0,16.46-28.31,21.66,21.66,0,0,0,11.53-33.5,24.05,24.05,0,0,0,10-38.29,22.48,22.48,0,0,0,8.31-5.29c9.46-9.55,9.28-26.6,9.12-43.08,0-2.2,0-4.4,0-6.59,0-18.46,9.52-33.16,20.53-50.18C390.48,227.14,407.87,200.28,407.87,154.23ZM319,385.3h-9.3v10.43a11.23,11.23,0,0,1,0,22.46H299.22v10.43a8.52,8.52,0,0,1,0,17H283.8V358H319a13.64,13.64,0,1,1,0,27.28ZM344.19,301c0,2.22,0,4.46,0,6.69.15,14.35.3,29.18-6.1,35.64-2.66,2.68-6.55,4-11.9,4H283.81V38.81c43.35,2.93,113.64,41.49,113.64,115.42,0,43-16.5,68.45-31.06,90.94C355,262.82,344.19,279.48,344.19,301Z" transform="translate(-84.44 -28.2)"/></svg>